<svg enable-background="new 0 0 256 256" viewBox="0 0 256 256" xmlns="http://www.w3.org/2000/svg"><path d="m112.55 93.191c-2.36.33-4.69.73-7 1.21-50.02 10.33-87.87 54.67-87.87 108.02h29.66c0-36.83 24.62-67.76 58.22-77.49 2.29-.66 4.63-1.22 7-1.68zm37.89 1.22c-2.31-.49-4.64-.89-7-1.22v30.06c2.37.46 4.71 1.03 7 1.69 33.57 9.71 58.21 40.66 58.21 77.48h29.67c0-53.25-37.74-97.66-87.88-108.01z" fill="#f0c020"/><path d="m112.56 123.251c-2.37.46-4.71 1.02-7 1.68 0-9.51-.01-21.19-.01-30.53 2.31-.48 4.64-.88 7-1.21z" fill="#e8a61e"/><path d="m150.44 94.411v30.53c-2.29-.66-4.63-1.23-7-1.69v-30.06c2.36.33 4.69.73 7 1.22z" fill="#e8a61e"/><path d="m251.91 207.421v19.67c0 2.76-2.24 5-5 5h-237.82c-2.76 0-5-2.24-5-5v-19.67c0-2.76 2.24-5 5-5h237.82c2.76 0 5 2.24 5 5z" fill="#f0c020"/><path d="m242.91 225.591h-214.33c-1.381 0-2.5-1.119-2.5-2.5s1.119-2.5 2.5-2.5h211.83v-9.17c0-1.381 1.119-2.5 2.5-2.5s2.5 1.119 2.5 2.5v11.67c0 1.381-1.119 2.5-2.5 2.5zm-224.33 0h-5.49c-1.381 0-2.5-1.119-2.5-2.5s1.119-2.5 2.5-2.5h5.49c1.381 0 2.5 1.119 2.5 2.5s-1.119 2.5-2.5 2.5z" fill="#f8e5b0"/><path d="m151.23 179.191-23.23 23.23-23.23-23.22c4.99-5 11.59-8.4 18.96-9.36l4.27 8.05 4.28-8.05c7.36.96 13.96 4.36 18.95 9.35z" fill="#fc5d3d"/><path d="m143.44 34.091v114.69l-6.72 12.7-4.44 8.36-4.28 8.05-4.27-8.05-4.44-8.36-6.73-12.69v-25.54l-.01-30.06v-59.1c0-5.52 4.48-10 10-10h10.89c5.53 0 10 4.48 10 10z" fill="#72c2e9"/><path d="m135.667 142.991h-16.376c-1.381 0-2.5-1.119-2.5-2.5s1.119-2.5 2.5-2.5h13.876v-64.65c0-1.381 1.119-2.5 2.5-2.5s2.5 1.119 2.5 2.5v67.15c0 1.381-1.119 2.5-2.5 2.5zm0-77.15c-1.381 0-2.5-1.119-2.5-2.5v-6c0-1.381 1.119-2.5 2.5-2.5s2.5 1.119 2.5 2.5v6c0 1.381-1.119 2.5-2.5 2.5z" fill="#c5e5fe"/><path d="m133.444 24.091h-10.89c-5.523 0-10 4.477-10 10v14.667h30.89v-14.667c0-5.522-4.477-10-10-10z" fill="#fc5d3d"/><path d="m143.44 148.781-6.72 12.7-4.44 8.36-4.28 8.05-4.27-8.05-4.44-8.36-6.73-12.69z" fill="#f0c020"/><path d="m136.73 161.471-.01.01-4.44 8.36-4.28 8.05-4.27-8.05-4.44-8.36-.01-.01z" fill="#878787"/><path d="m168.38 199.931c-1.38 0-2.5 1.12-2.5 2.5 0 1.37 1.12 2.49 2.5 2.49s2.5-1.12 2.5-2.49c0-1.38-1.12-2.5-2.5-2.5z"/><path d="m246.91 199.931h-6.145c-.644-28.992-12.345-55.544-31.307-75.422l38.642-38.638c.934-.934 1.015-2.503 0-3.54-.95-.94-2.59-.94-3.54 0l-38.633 38.63c-16.385-15.729-37.376-26.319-59.987-29.922v-56.948c0-6.89-5.609-12.5-12.5-12.5h-10.89c-6.89 0-12.5 5.61-12.5 12.5.001 10.131.004 51.417.005 56.962-23.313 3.75-43.999 14.564-59.987 29.914l-6.108-6.106c-.94-.94-2.59-.94-3.53 0-.98.98-.964 2.566 0 3.53l6.116 6.116c-19.146 20.067-30.673 46.687-31.311 75.424h-6.145c-4.13 0-7.5 3.36-7.5 7.49v19.67c0 4.13 3.37 7.49 7.5 7.49h237.82c4.13 0 7.489-3.36 7.5-7.49v-19.67c-.011-4.13-3.37-7.49-7.5-7.49zm-20.354-41.028-8.436 3.488c-1.213.497-1.907 1.933-1.351 3.26.503 1.21 1.868 1.902 3.271 1.36l8.437-3.492c4.447 11.409 6.992 23.689 7.288 36.412h-24.667c-.626-20.663-9.002-39.925-22.62-54.444l17.445-17.443c8.564 8.995 15.56 19.439 20.633 30.859zm-80.617-62.796c7.174 1.201 14.191 3.144 20.998 5.785l-4.097 9.889c-.53 1.27.08 2.74 1.35 3.27 1.403.543 2.771-.158 3.271-1.36l4.096-9.886c11.513 5.102 21.92 12.145 30.838 20.688l-17.45 17.449c-10.652-10.078-23.854-17.358-39.005-20.703v-25.132zm-.29 53.844c.156-.304.29-.785.29-1.17v-22.427c13.697 3.229 25.725 9.934 35.472 19.12l-30.248 30.245c-4.329-3.75-9.535-6.408-15.089-7.716zm-37.271 29.313c4.008-3.396 8.835-5.704 13.981-6.673l3.431 6.47c.915 1.746 3.455 1.797 4.42 0l3.439-6.47c5.141.97 9.971 3.27 13.971 6.67l-19.62 19.62zm13.59 20.667h-72.076c.623-19.318 8.451-37.321 21.159-50.918 4.538 4.537 46.377 46.38 50.917 50.918zm6.042-99.68c1.37 0 2.49-1.12 2.49-2.5v-46.5h10.439v95.03h-10.439v-28.53c0-1.38-1.12-2.5-2.49-2.5-1.38 0-2.5 1.12-2.5 2.5v28.53h-10.45c-.001-12.919-.007-86.292-.008-95.03h10.458v46.5c0 1.38 1.12 2.5 2.5 2.5zm11.28 51.021-4.083 7.699h-14.408l-4.076-7.691c1.449-.001-4.883.002 22.567-.008zm-6.735 12.699-4.555 8.59c-1.134-2.141-3.352-6.326-4.552-8.59zm-10.005-137.38h10.89c4.13.01 7.49 3.37 7.5 7.5v12.17c-.632 0-1.096 0-1.436 0-.601 0-.805 0-.805 0-1.89 0-7.719 0-23.647 0l-.001-12.17c.009-4.13 3.369-7.49 7.499-7.5zm-12.49 122.19c0 .457.229 1.081.391 1.34l9.479 17.883c-5.559 1.31-10.768 3.973-15.091 7.721l-30.26-30.253c9.72-9.161 21.733-15.876 35.479-19.118zm-25.617-44.977 4.097 9.887c.502 1.212 1.872 1.902 3.27 1.36 1.222-.521 1.904-1.948 1.351-3.27l-4.098-9.89c7.163-2.78 14.018-4.601 20.993-5.777l.002 25.125c-15.223 3.362-28.405 10.665-39.013 20.701l-17.445-17.441c8.919-8.546 19.327-15.591 30.843-20.695zm-56.921 59.717 8.438 3.481c1.322.557 2.753-.105 3.27-1.35.525-1.303-.093-2.735-1.35-3.27l-8.436-3.477c5.073-11.422 12.071-21.867 20.636-30.863l17.437 17.437c-13.622 14.518-21.999 33.783-22.625 54.452h-24.657c.295-12.722 2.84-25.001 7.287-36.41zm221.888 63.57c-.011 1.37-1.13 2.49-2.5 2.5h-33.81v-9.68c0-1.38-1.12-2.5-2.49-2.5-1.38 0-2.5 1.12-2.5 2.5v9.68h-36.31v-9.68c0-1.38-1.12-2.5-2.5-2.5s-2.5 1.12-2.5 2.5v9.68h-36.3v-9.68c0-1.38-1.12-2.5-2.5-2.5s-2.5 1.12-2.5 2.5v9.68h-36.3v-9.68c0-1.38-1.131-2.5-2.5-2.5-1.381 0-2.5 1.12-2.5 2.5v9.68h-36.301v-9.68c0-1.38-1.13-2.5-2.5-2.5-1.38 0-2.5 1.12-2.5 2.5v9.68h-33.809c-1.37-.01-2.49-1.13-2.5-2.5v-19.67c.01-1.37 1.13-2.49 2.5-2.5h149.29c1.38 0 2.5-1.12 2.5-2.49 0-1.38-1.12-2.5-2.5-2.5h-24.35l50.914-50.91c12.705 13.598 20.531 31.598 21.154 50.91h-27.718c-1.38 0-2.5 1.12-2.5 2.5 0 1.37 1.12 2.49 2.5 2.49h68.53c1.37.01 2.489 1.13 2.5 2.5z"/><path d="m26.29 104.251c.964.965 2.549.981 3.529 0 .98-.97.98-2.56 0-3.53l-18.38-18.39c-.949-.94-2.59-.94-3.54 0-.976.977-.973 2.568 0 3.54z"/><path d="m36.89 111.321c.98-.981.968-2.562 0-3.53-.939-.95-2.59-.95-3.53 0-.962.963-.982 2.547 0 3.53.977.976 2.557.973 3.53 0z"/><path d="m128.01 110.251c1.37 0 2.49-1.12 2.49-2.5s-1.12-2.5-2.49-2.5c-1.38 0-2.5 1.12-2.5 2.5s1.12 2.5 2.5 2.5z"/></svg>