<svg enable-background="new 0 0 425.8901 1010" viewBox="0 0 425.8901 1010" xmlns="http://www.w3.org/2000/svg"><path d="m293.9936 621.0801v-516.3936c0-48.1938-39.0781-87.2729-87.3066-87.2729-48.1943 0-87.273 39.0791-87.273 87.2729v516.3936c-65.5058 32.1582-102 98.123-102 175.039 0 108.4961 91.5245 196.4668 199.9527 196.4668 108.4619 0 191.1094-87.9707 191.1094-196.4668 0-76.916-49.0098-142.8808-114.4825-175.039z" fill="#fffffd"/><path d="m293.9936 621.0801v-394.5137h-174.5796v394.5137c-65.5058 32.1582-102 98.123-102 175.039 0 108.4961 91.5245 196.4668 199.9527 196.4668 108.4619 0 191.1094-87.9707 191.1094-196.4668 0-76.916-49.0098-142.8808-114.4825-175.039z" fill="#ffca72"/><path d="m322.0532 796.1191c0 60.2686-48.8574 109.1094-109.1255 109.1094-60.2847 0-109.1079-48.8408-109.1079-109.1094 0-60.3007 48.8232-109.1416 109.1079-109.1416 60.2681 0 109.1255 48.8409 109.1255 109.1416z" fill="#a6dddd"/><g fill="#37474f"><path d="m217.3667 1010c-119.856 0-217.3667-95.9463-217.3667-213.8809 0-81.0135 37.914-149.5468 102-185.5488v-505.8838c0-57.7173 46.9614-104.6865 104.687-104.6865 57.751 0 104.7207 46.9692 104.7207 104.6865v505.833c69.8926 38.5352 114.4824 110.2823 114.4824 185.5995 0 119.9415-91.5928 213.881-208.5234 213.881zm-10.6797-975.1724c-38.5181 0-69.8594 31.3413-69.8594 69.8589v516.3936c0 6.6494-3.7754 12.7031-9.7358 15.6289-57.7764 28.3652-92.2642 87.9531-92.2642 159.4101 0 98.7354 81.8906 179.0528 182.5391 179.0528 97.4082 0 173.6953-78.6504 173.6953-179.0528 0-65.5898-41.1192-128.1543-104.7539-159.4101-5.9531-2.9258-9.7285-8.9961-9.7285-15.6289v-516.3936c0-38.5176-31.3575-69.8589-69.8926-69.8589z"/><path d="m196.2456 163.7812h-65.438c-9.6167 0-17.4136-7.7885-17.4136-17.4135 0-9.6255 7.7969-17.4141 17.4136-17.4141h65.438c9.6167 0 17.4136 7.7886 17.4136 17.4141 0 9.625-7.7969 17.4135-17.4136 17.4135z"/><path d="m196.2456 251.0376h-65.438c-9.6167 0-17.4136-7.7891-17.4136-17.4141s7.7969-17.4135 17.4136-17.4135h65.438c9.6167 0 17.4136 7.7885 17.4136 17.4135s-7.7969 17.4141-17.4136 17.4141z"/><path d="m196.2456 338.3613h-65.438c-9.6167 0-17.4136-7.7885-17.4136-17.4135 0-9.6255 7.7969-17.4141 17.4136-17.4141h65.438c9.6167 0 17.4136 7.7886 17.4136 17.4141 0 9.625-7.7969 17.4135-17.4136 17.4135z"/><path d="m212.9277 922.6416c-69.7656 0-126.522-56.7646-126.522-126.5225 0-69.791 56.7564-126.5556 126.522-126.5556 69.7749 0 126.5396 56.7646 126.5396 126.5556 0 69.7579-56.7647 126.5225-126.5396 126.5225zm0-218.251c-50.5576 0-91.6943 41.1543-91.6943 91.7285 0 50.5586 41.1367 91.6954 91.6943 91.6954 50.5581 0 91.7124-41.1368 91.7124-91.6954 0-50.5742-41.1543-91.7285-91.7124-91.7285z"/><path d="m212.9448 691.5518c-9.6167 0-17.4136-7.7881-17.4136-17.4131v-261.8877c0-9.625 7.7969-17.4136 17.4136-17.4136 9.6172 0 17.4141 7.7886 17.4141 17.4136v261.8877c0 9.625-7.7969 17.4131-17.4141 17.4131z"/></g></svg>